# xmcd
#
# Track frame offsets: 
#        150
#        12137
#        23475
#        33820
#        44950
#        55665
#        69560
#        82265
#        93975
#        107492
#        119490
#        131517
#        141397
#        155052
#        167880
#        181600
#        192907
#        207175
#        219465
#        233567
#
# Disc length: 3279 seconds
#
# Revision: 1
# Processed by: cddbd v1.5.2PL0 Copyright (c) Steve Scherf et al.
# Submitted via: ExactAudioCopy v1.1
#
DISCID=130ccd14
DTITLE=Buck Owens - Hot Dog (1988) - Act Naturally (1989)
DYEAR=1990
DGENRE=Country
TTITLE0=Don't let her know
TTITLE1=A-11
TTITLE2=Summertime blues
TTITLE3=Memphis
TTITLE4=Hot dog
TTITLE5=Put another quarter in the jukebox
TTITLE6=Under your spell again
TTITLE7=Second fiddle
TTITLE8=Sweethearts in heaven
TTITLE9=The keys in the mailbox
TTITLE10=Tijuana lady
TTITLE11=Gonna have love
TTITLE12=Out there chasing rainbows
TTITLE13=I was there
TTITLE14=Act naturally
TTITLE15=Playboy
TTITLE16=Rock hard love
TTITLE17=Crying time
TTITLE18=Brooklyn bridge
TTITLE19=Take me back again
EXTD=Buck Owens  hot dog and act naturally
EXTT0=
EXTT1=
EXTT2=
EXTT3=
EXTT4=
EXTT5=
EXTT6=
EXTT7=
EXTT8=
EXTT9=
EXTT10=
EXTT11=
EXTT12=
EXTT13=
EXTT14=
EXTT15=
EXTT16=
EXTT17=
EXTT18=
EXTT19=
PLAYORDER=
